<?xml version="1.0" encoding="utf-8"?><svg xmlns="http://www.w3.org/2000/svg" xmlns:xlink="http://www.w3.org/1999/xlink"><symbol viewBox="0 0 24 24" id="Instagram" xmlns="http://www.w3.org/2000/svg"><path d="M21.98 7.88c-.046-1.063-.218-1.793-.464-2.426a4.88 4.88 0 0 0-1.157-1.774 4.922 4.922 0 0 0-1.77-1.153c-.637-.246-1.363-.418-2.426-.464-1.07-.051-1.41-.063-4.126-.063-2.715 0-3.055.012-4.122.059-1.062.046-1.793.218-2.426.464A4.88 4.88 0 0 0 3.715 3.68a4.924 4.924 0 0 0-1.152 1.77c-.247.637-.418 1.363-.465 2.426-.051 1.07-.063 1.41-.063 4.126 0 2.715.012 3.055.059 4.122.047 1.063.219 1.793.465 2.426a4.932 4.932 0 0 0 1.156 1.774c.5.508 1.106.902 1.77 1.152.637.247 1.364.419 2.426.465 1.067.047 1.407.059 4.122.059 2.716 0 3.056-.012 4.122-.059 1.063-.046 1.793-.218 2.426-.464a5.116 5.116 0 0 0 2.927-2.927c.246-.637.418-1.364.465-2.426.047-1.067.058-1.407.058-4.122s-.004-3.055-.05-4.122zm-1.8 8.166c-.044.977-.208 1.504-.345 1.855a3.317 3.317 0 0 1-1.898 1.9c-.352.136-.883.3-1.856.343-1.055.047-1.371.059-4.04.059-2.668 0-2.989-.012-4.04-.059-.977-.043-1.504-.207-1.856-.344a3.077 3.077 0 0 1-1.148-.746 3.11 3.11 0 0 1-.747-1.148c-.136-.352-.3-.883-.343-1.856-.047-1.055-.059-1.372-.059-4.04 0-2.669.012-2.99.059-4.04.043-.977.207-1.504.343-1.856A3.04 3.04 0 0 1 5 4.965a3.105 3.105 0 0 1 1.15-.746c.35-.137.882-.3 1.855-.344 1.055-.046 1.372-.058 4.04-.058 2.672 0 2.989.012 4.04.058.977.043 1.504.207 1.856.344.433.16.828.414 1.148.746.332.325.586.715.747 1.15.136.35.3.882.343 1.855.047 1.055.059 1.371.059 4.04 0 2.668-.012 2.98-.059 4.036z"/><path d="M12.037 6.864A5.139 5.139 0 0 0 6.9 12.002a5.139 5.139 0 1 0 5.138-5.138zm0 8.47a3.333 3.333 0 1 1 .001-6.666 3.333 3.333 0 0 1 0 6.667zM18.578 6.661a1.2 1.2 0 1 1-2.4 0 1.2 1.2 0 0 1 2.4 0z"/></symbol><symbol viewBox="0 0 24 24" id="Linked-In" xmlns="http://www.w3.org/2000/svg"><path d="M21.995 22H22v-7.336c0-3.588-.773-6.352-4.968-6.352-2.016 0-3.37 1.106-3.922 2.155h-.058v-1.82H9.074v13.352h4.142v-6.611c0-1.741.33-3.425 2.486-3.425 2.124 0 2.156 1.987 2.156 3.536V22h4.137zM2.33 8.648h4.147V22H2.33V8.648zM4.402 2A2.402 2.402 0 0 0 2 4.402c0 1.325 1.076 2.424 2.402 2.424 1.325 0 2.401-1.098 2.401-2.424A2.403 2.403 0 0 0 4.402 2z"/></symbol><symbol viewBox="0 0 24 24" id="YouTube" xmlns="http://www.w3.org/2000/svg"><path fill-rule="evenodd" clip-rule="evenodd" d="M21.39 4.114a3.007 3.007 0 0 1 2.116 2.115c.514 1.878.494 5.792.494 5.792s0 3.895-.494 5.773a3.007 3.007 0 0 1-2.116 2.115c-1.878.495-9.39.495-9.39.495s-7.493 0-9.39-.514a3.007 3.007 0 0 1-2.116-2.116C0 15.916 0 12.001 0 12.001S0 8.107.494 6.23A3.068 3.068 0 0 1 2.61 4.094C4.488 3.6 12 3.6 12 3.6s7.513 0 9.391.514zm-5.535 7.888L9.608 15.6V8.404l6.247 3.598z" opacity=".6"/></symbol><symbol viewBox="0 0 18 12" id="arrow" xmlns="http://www.w3.org/2000/svg"><path fill-rule="evenodd" clip-rule="evenodd" d="M6.207 11.207a1 1 0 0 1-1.414 0l-4.5-4.5a1 1 0 0 1 0-1.414l4.5-4.5a1 1 0 0 1 1.414 1.414L3.414 5H17a1 1 0 1 1 0 2H3.414l2.793 2.793a1 1 0 0 1 0 1.414z"/></symbol><symbol viewBox="0 0 24 16" id="be" xmlns="http://www.w3.org/2000/svg"><path d="M12.365 11.144c0-1.972-.879-3.429-2.695-3.975 1.325-.673 2.016-1.693 2.016-3.279C11.686.763 9.494 0 6.964 0H0v15.703h7.16c2.684 0 5.205-1.369 5.205-4.56zM3.247 2.68h3.046c1.171 0 2.226.35 2.226 1.794 0 1.333-.82 1.87-1.98 1.87H3.246V2.68zm-.001 10.355V8.712h3.538c1.43 0 2.334.633 2.334 2.242 0 1.586-1.08 2.082-2.4 2.082H3.245zM18.8 16c2.554 0 4.208-1.223 5.004-3.824h-2.592c-.28.97-1.43 1.484-2.322 1.484-1.721 0-2.625-1.072-2.625-2.894h7.714c.244-3.646-1.66-6.753-5.18-6.753-3.26 0-5.473 2.604-5.473 6.017 0 3.541 2.097 5.97 5.473 5.97zm-.093-9.628c1.476 0 2.218.922 2.342 2.429h-4.78c.097-1.495 1.03-2.429 2.438-2.429zM15.67.825h5.99v1.547h-5.99V.825z"/></symbol><symbol viewBox="0 0 16 14" id="chat" xmlns="http://www.w3.org/2000/svg"><path fill-rule="evenodd" clip-rule="evenodd" d="M14.615 6.046a5.166 5.166 0 0 1-.653 1.858c.025.142.038.286.038.43 0 .502-.146.982-.415 1.419-.135.218-.17.473-.183.642-.015.193-.01.404.004.607.016.228.044.468.076.693-.26-.075-.542-.152-.812-.212a5.819 5.819 0 0 0-.66-.115c-.181-.019-.443-.034-.676.042a5.425 5.425 0 0 1-1.668.258 5.365 5.365 0 0 1-1.92-.343 8.824 8.824 0 0 1-2.712-.291C6.085 12.248 7.818 13 9.666 13a6.76 6.76 0 0 0 2.054-.315h.006c.016 0 .062 0 .147.008.134.014.306.044.504.09.395.088.839.22 1.184.33.734.232 1.445-.408 1.313-1.152-.056-.32-.115-.711-.138-1.05a2.96 2.96 0 0 1-.004-.413.783.783 0 0 1 .01-.083c.375-.621.591-1.329.591-2.082 0-.849-.264-1.624-.718-2.288z"/><path fill-rule="evenodd" clip-rule="evenodd" d="M3.731 2.8c-.899.687-1.398 1.589-1.398 2.534 0 .471.123.925.353 1.347.088.161.113.327.121.44.01.122.005.248-.005.365a5.847 5.847 0 0 1-.134.766c-.07.307-.162.635-.255.943.352-.128.737-.259 1.102-.365.295-.086.593-.161.858-.203.228-.036.56-.072.845.027a6.48 6.48 0 0 0 2.115.347c1.432 0 2.703-.445 3.602-1.132.899-.688 1.398-1.59 1.398-2.535 0-.945-.5-1.847-1.398-2.535-.9-.687-2.17-1.132-3.602-1.132-1.431 0-2.703.445-3.602 1.132zm-.81-1.06C4.073.86 5.635.334 7.333.334s3.26.526 4.412 1.406c1.152.881 1.921 2.146 1.921 3.594s-.769 2.713-1.921 3.594c-1.152.88-2.714 1.406-4.412 1.406a7.82 7.82 0 0 1-2.527-.412c0 .003-.064-.004-.225.022-.186.03-.423.087-.693.165a20.59 20.59 0 0 0-1.599.558c-.796.31-1.606-.455-1.338-1.269.142-.432.31-.977.419-1.448.055-.237.09-.436.104-.584a1.16 1.16 0 0 0 .005-.114A4.117 4.117 0 0 1 1 5.334c0-1.448.77-2.713 1.922-3.594z"/></symbol><symbol viewBox="0 0 16 16" id="curator-play" xmlns="http://www.w3.org/2000/svg"><path fill-rule="evenodd" clip-rule="evenodd" d="M10.712 6.941a1.333 1.333 0 0 1 0 2.119l-3.053 2.333c-.878.67-2.143.045-2.143-1.059V5.667c0-1.105 1.265-1.73 2.143-1.06l3.053 2.334zm-.81 1.06L6.85 5.666v4.667L9.902 8z"/><path fill-rule="evenodd" clip-rule="evenodd" d="M8 2a6 6 0 1 0 0 12A6 6 0 0 0 8 2zM.667 8a7.333 7.333 0 1 1 14.666 0A7.333 7.333 0 0 1 .667 8z"/></symbol><symbol viewBox="0 0 24 24" id="facebook" xmlns="http://www.w3.org/2000/svg"><path d="M17.563 1.005L14.786 1c-3.12 0-5.137 2.125-5.137 5.414v2.497H6.857c-.242 0-.437.2-.437.448v3.617c0 .248.196.449.437.449h2.792v9.126c0 .248.195.449.437.449h3.643a.443.443 0 0 0 .437-.449v-9.126h3.265c.241 0 .436-.2.436-.449l.002-3.617a.455.455 0 0 0-.128-.317.43.43 0 0 0-.31-.131h-3.265V6.794c0-1.017.236-1.533 1.526-1.533h1.87c.241 0 .437-.202.437-.45V1.454a.443.443 0 0 0-.436-.448z"/></symbol><symbol viewBox="0 0 15 16" id="library" xmlns="http://www.w3.org/2000/svg"><path fill-rule="evenodd" clip-rule="evenodd" d="M7.202.736a.667.667 0 0 1 .596 0l6.667 3.334a.667.667 0 0 1 0 1.192L7.798 8.596a.667.667 0 0 1-.596 0L.535 5.262a.667.667 0 0 1 0-1.192L7.202.736zm-4.878 3.93L7.5 7.254l5.176-2.588L7.5 2.078 2.324 4.666z"/><path fill-rule="evenodd" clip-rule="evenodd" d="M.237 7.701a.667.667 0 0 1 .894-.298L7.5 10.587l6.368-3.184a.667.667 0 1 1 .597 1.193l-6.667 3.333a.667.667 0 0 1-.596 0L.535 8.596A.667.667 0 0 1 .237 7.7z"/><path fill-rule="evenodd" clip-rule="evenodd" d="M.237 11.034a.667.667 0 0 1 .894-.298L7.5 13.921l6.368-3.185a.667.667 0 1 1 .597 1.193l-6.667 3.333a.667.667 0 0 1-.596 0L.535 11.93a.667.667 0 0 1-.298-.895z"/></symbol><symbol viewBox="0 0 84 84" id="play-video" xmlns="http://www.w3.org/2000/svg"><circle opacity=".12" cx="42" cy="42" r="42"/><circle cx="42" cy="42" r="26"/><path d="M48.5 41.134a1 1 0 0 1 0 1.732l-9 5.196a1 1 0 0 1-1.5-.866V36.804a1 1 0 0 1 1.5-.866l9 5.196z"/></symbol><symbol viewBox="0 0 47 40" id="quote" xmlns="http://www.w3.org/2000/svg"><path d="M12.914 22.857c2.402 0 4.304.802 5.706 2.406 1.501 1.504 2.252 3.509 2.252 6.015 0 2.707-.9 4.862-2.703 6.466C16.468 39.248 14.115 40 11.112 40c-3.504 0-6.257-1.353-8.259-4.06C.951 33.233 0 29.373 0 24.36c0-4.51 1.001-8.67 3.003-12.48C5.005 7.97 8.01 4.06 12.013.15c.1-.1.25-.15.45-.15.3 0 .55.15.751.451.2.3.2.551 0 .752C8.31 6.216 5.856 12.13 5.856 18.947c0 2.807.5 4.863 1.502 6.166.9-1.504 2.753-2.256 5.556-2.256zm26.128 0c2.402 0 4.304.802 5.706 2.406C46.249 26.767 47 28.772 47 31.278c0 2.707-.901 4.862-2.703 6.466C42.595 39.248 40.243 40 37.24 40c-3.504 0-6.257-1.353-8.26-4.06-1.901-2.707-2.852-6.567-2.852-11.58 0-4.51 1-8.67 3.003-12.48 2.002-3.91 5.005-7.82 9.01-11.73.1-.1.25-.15.45-.15.3 0 .55.15.75.451.201.3.201.551 0 .752-4.904 5.013-7.357 10.927-7.357 17.744 0 2.807.5 4.863 1.502 6.166.9-1.504 2.753-2.256 5.556-2.256z"/></symbol><symbol viewBox="0 0 14 9" id="select-arrow" xmlns="http://www.w3.org/2000/svg"><path d="M7.576 8.488l5.433-5.922a1.054 1.054 0 0 0 0-1.455c-.388-.415-.97-.415-1.358 0L6.8 6.202l-4.85-5.09C1.56.695.98.695.59 1.111a.976.976 0 0 0-.291.727c0 .311.097.52.291.727l5.433 5.922c.485.416 1.067.416 1.552 0-.097 0-.097 0 0 0z"/></symbol><symbol viewBox="0 0 15 16" id="shape" xmlns="http://www.w3.org/2000/svg"><path fill-rule="evenodd" clip-rule="evenodd" d="M8.955 2.167c-.093 0-.18.05-.227.13l-.004.007-3.057 4.957v6.573h5.724c.123 0 .229-.085.255-.205l.003-.01 1.7-6.64a.262.262 0 0 0-.258-.312h-2.59c-.435 0-.874-.145-1.194-.457a1.406 1.406 0 0 1-.392-1.304l.48-2.426a.262.262 0 0 0-.258-.313h-.182zM4.333 13.834V7.739H1.971a.262.262 0 0 0-.262.26l-.042 5.571a.262.262 0 0 0 .262.264h2.404zm.295-7.429l2.954-4.788A1.595 1.595 0 0 1 8.955.834h.182c1.005 0 1.76.918 1.565 1.904l-.479 2.426a.139.139 0 0 0-.002.067.057.057 0 0 0 .017.025c.028.027.111.078.262.078h2.591c1.021 0 1.78.945 1.558 1.941l-.003.01-1.7 6.645a1.595 1.595 0 0 1-1.555 1.237H1.929A1.595 1.595 0 0 1 .334 13.56l.042-5.571a1.595 1.595 0 0 1 1.595-1.584h2.657z"/></symbol><symbol viewBox="0 0 16 16" id="star" xmlns="http://www.w3.org/2000/svg"><path fill-rule="evenodd" clip-rule="evenodd" d="M6.78 1.467C7.241.4 8.756.4 9.22 1.467l1.401 3.231 3.506.334c1.16.11 1.627 1.551.755 2.322l-2.64 2.33.765 3.438c.253 1.136-.972 2.027-1.974 1.435L8 12.767l-3.033 1.79c-1.002.592-2.228-.299-1.975-1.435l.766-3.437-2.64-2.331c-.873-.77-.405-2.211.754-2.322l3.506-.334 1.401-3.23zm2.62 3.76L8 1.997l-1.401 3.23a1.33 1.33 0 0 1-1.095.795L2 6.356l2.64 2.331c.363.321.523.814.418 1.287L4.29 13.41l3.033-1.79a1.33 1.33 0 0 1 1.352 0l3.033 1.79-.766-3.437a1.33 1.33 0 0 1 .418-1.287l2.64-2.33-3.506-.335a1.33 1.33 0 0 1-1.094-.795z"/></symbol><symbol viewBox="0 0 14 16" id="students" xmlns="http://www.w3.org/2000/svg"><path fill-rule="evenodd" clip-rule="evenodd" d="M7 2.166a2.333 2.333 0 1 0 0 4.667 2.333 2.333 0 0 0 0-4.667zM3.333 4.5a3.667 3.667 0 1 1 7.334 0 3.667 3.667 0 0 1-7.334 0zM3.07 10.166c-.463 0-.824.225-.97.549-.204.447-.387.98-.43 1.486-.02.225.074.392.204.473C2.56 13.1 4.15 13.833 7 13.833c2.85 0 4.44-.733 5.126-1.16.13-.08.224-.247.205-.473-.043-.505-.227-1.038-.43-1.485-.147-.324-.508-.549-.97-.549H3.069zm-2.185-.002c.405-.894 1.31-1.331 2.184-1.331h7.862c.874 0 1.779.437 2.184 1.331.233.513.483 1.203.544 1.922.057.655-.216 1.339-.829 1.72-.902.56-2.737 1.36-5.83 1.36s-4.927-.8-5.83-1.36c-.613-.381-.885-1.065-.83-1.72.062-.719.312-1.409.545-1.922z"/></symbol><symbol viewBox="0 0 24 24" id="telegram" xmlns="http://www.w3.org/2000/svg"><path d="M9.633 15.181l-.364 5.584c.52 0 .746-.244 1.016-.537l2.441-2.545 5.059 4.041c.927.564 1.581.267 1.831-.93l3.32-16.973h.001c.295-1.497-.495-2.082-1.4-1.715L2.022 10.257c-1.332.564-1.311 1.374-.226 1.741l4.99 1.693 11.59-7.91c.545-.395 1.04-.177.633.217l-9.375 9.183z"/></symbol><symbol viewBox="0 0 22 18" id="tvitter" xmlns="http://www.w3.org/2000/svg"><path d="M21.5 2.772a8.902 8.902 0 0 1-2.474.65 4.18 4.18 0 0 0 1.894-2.28 8.922 8.922 0 0 1-2.737 1A4.387 4.387 0 0 0 15.038.84c-2.379 0-4.308 1.847-4.308 4.124 0 .323.038.638.112.94-3.58-.173-6.754-1.815-8.879-4.31a3.962 3.962 0 0 0-.583 2.073c0 1.431.762 2.694 1.916 3.433a4.455 4.455 0 0 1-1.95-.518v.052c0 1.997 1.485 3.665 3.454 4.044-.36.093-.741.145-1.135.145a4.31 4.31 0 0 1-.81-.077c.548 1.64 2.138 2.832 4.023 2.865a8.89 8.89 0 0 1-5.35 1.763c-.348 0-.69-.02-1.028-.057a12.572 12.572 0 0 0 6.603 1.856c7.925 0 12.257-6.285 12.257-11.736l-.015-.534a8.412 8.412 0 0 0 2.155-2.13z"/></symbol><symbol viewBox="0 0 24 24" id="twitter" xmlns="http://www.w3.org/2000/svg"><path d="M22.5 5.772a8.902 8.902 0 0 1-2.474.65 4.18 4.18 0 0 0 1.894-2.28 8.922 8.922 0 0 1-2.737 1 4.387 4.387 0 0 0-3.145-1.302c-2.379 0-4.308 1.847-4.308 4.124 0 .323.038.638.112.94-3.58-.173-6.754-1.815-8.879-4.31a3.962 3.962 0 0 0-.583 2.073c0 1.431.762 2.694 1.916 3.433a4.455 4.455 0 0 1-1.95-.518v.052c0 1.997 1.485 3.665 3.454 4.044-.36.093-.741.145-1.135.145a4.31 4.31 0 0 1-.81-.077c.548 1.64 2.138 2.832 4.023 2.865a8.89 8.89 0 0 1-5.35 1.763c-.348 0-.69-.02-1.028-.057a12.572 12.572 0 0 0 6.603 1.856c7.925 0 12.257-6.285 12.257-11.736l-.015-.534a8.412 8.412 0 0 0 2.155-2.13z"/></symbol><symbol viewBox="0 0 18 18" id="user-icon" xmlns="http://www.w3.org/2000/svg"><path fill-rule="evenodd" clip-rule="evenodd" d="M9 1.709a2.917 2.917 0 1 0 0 5.833 2.917 2.917 0 0 0 0-5.833zM4.417 4.625a4.583 4.583 0 1 1 9.167 0 4.583 4.583 0 0 1-9.167 0zM4.087 11.709c-.578 0-1.03.281-1.213.685-.253.56-.483 1.226-.537 1.857-.025.283.093.49.255.592.858.532 2.845 1.449 6.408 1.449s5.55-.917 6.408-1.45c.162-.1.28-.308.256-.59-.054-.632-.284-1.298-.538-1.858-.183-.404-.635-.685-1.212-.685H4.087zm-2.73-.003c.506-1.117 1.637-1.664 2.73-1.664h9.827c1.092 0 2.223.547 2.73 1.664.291.641.603 1.504.68 2.403.07.818-.27 1.673-1.036 2.15-1.128.7-3.421 1.7-7.288 1.7-3.866 0-6.16-1-7.287-1.7-.767-.477-1.107-1.332-1.037-2.15.077-.9.39-1.762.68-2.403z"/></symbol></svg>